<?xml version="1.0" encoding="UTF-8"?>
<!DOCTYPE svg PUBLIC "-//W3C//DTD SVG 1.1//EN" "http://www.w3.org/Graphics/SVG/1.1/DTD/svg11.dtd">
<!-- Creator: CorelDRAW 2019 (64-Bit) -->
<svg xmlns="http://www.w3.org/2000/svg" xml:space="preserve" width="97px" height="99px" version="1.1" style="shape-rendering:geometricPrecision; text-rendering:geometricPrecision; image-rendering:optimizeQuality; fill-rule:evenodd; clip-rule:evenodd"
viewBox="0 0 6.8 6.89"
 xmlns:xlink="http://www.w3.org/1999/xlink"
 xmlns:xodm="http://www.corel.com/coreldraw/odm/2003">
 <defs>
  <style type="text/css">
   <![CDATA[
    .fil0 {fill:#2B2A29;fill-rule:nonzero}
    .fil1 {fill:#0047FF;fill-rule:nonzero}
   ]]>
  </style>
 </defs>
 <g id="Слой_x0020_1">
  <metadata id="CorelCorpID_0Corel-Layer"/>
  <path class="fil0" d="M0.4 0.35l6.09 2.97c-2.08,1.1 -4.17,2.2 -6.25,3.3l0.96 -3.35 -0.97 -3 0.17 0.08zm5.73 2.98l-5.63 -2.75 0.87 2.68 -0.88 3.04 5.64 -2.97z"/>
  <path class="fil1" d="M0.46 0.22l6.34 3.09 -0.24 0.13c-2.09,1.1 -4.17,2.2 -6.26,3.3l-0.29 0.15 1.05 -3.62 -1.06 -3.27 0.46 0.22zm3.35 3.33l-2.38 0 -0.71 2.47 5.1 -2.69 -5.09 -2.48 0.73 2.25 2.49 0 0 0.45 -0.14 0z"/>
 </g>
</svg>
